<svg width="80" height="80" viewBox="0 0 80 80" fill="none" xmlns="http://www.w3.org/2000/svg">
<path d="M78.34 28.49C66.34 25.51 65.87 25.39 64.6 8.14C64.54 7.33 63.87 6.7 63.06 6.69C62.23 6.66 61.57 7.29 61.49 8.1C59.74 25.92 58.84 26.12 47.8 28.48C47.07 28.64 46.56 29.28 46.57 30.03C46.58 30.77 47.12 31.41 47.85 31.54C59.24 33.64 59.32 34.33 61.5 51.95C61.6 52.73 62.26 53.32 63.05 53.32C63.84 53.32 64.5 52.72 64.59 51.94C66.64 34.2 66.9 33.82 78.27 31.54C78.99 31.4 79.51 30.78 79.52 30.05C79.53 29.32 79.05 28.68 78.34 28.5V28.49Z" fill="white"/>
<path d="M44.6 39.18C39.19 37.83 38.98 37.78 38.4 30C38.37 29.64 38.07 29.35 37.71 29.35C37.33 29.34 37.04 29.62 37 29.99C36.21 38.03 35.81 38.12 30.82 39.18C30.49 39.25 30.26 39.54 30.26 39.88C30.26 40.22 30.51 40.5 30.84 40.56C35.98 41.51 36.01 41.82 37 49.77C37.04 50.12 37.34 50.39 37.7 50.39C38.06 50.39 38.36 50.12 38.4 49.77C39.33 41.77 39.44 41.6 44.57 40.57C44.89 40.51 45.13 40.23 45.14 39.9C45.15 39.57 44.93 39.28 44.61 39.2L44.6 39.18Z" fill="white"/>
<path d="M49.85 14.01C45.82 13.01 45.66 12.97 45.23 7.17C45.21 6.9 44.99 6.69 44.71 6.68C44.43 6.68 44.21 6.88 44.18 7.15C43.59 13.14 43.29 13.2 39.58 14C39.34 14.05 39.16 14.27 39.17 14.52C39.17 14.77 39.35 14.98 39.6 15.03C43.43 15.74 43.45 15.97 44.19 21.89C44.22 22.15 44.45 22.35 44.71 22.35C44.98 22.35 45.2 22.15 45.23 21.89C45.92 15.93 46.01 15.8 49.83 15.03C50.07 14.98 50.25 14.77 50.25 14.53C50.25 14.29 50.09 14.07 49.85 14.01Z" fill="white"/>
<path d="M45.5 49.07C44.84 52.85 41.56 55.72 37.59 55.72H15.38C11 55.64 7.47998 52.08 7.47998 47.68C7.47998 43.28 11.08 39.64 15.52 39.64H26.53V33.66H15.4C7.45998 33.72 1.47998 39.74 1.47998 47.7C1.47998 55.66 7.34998 61.52 15.19 61.68H37.6C45.14 61.68 50.94 56.34 51.58 49.05H45.51L45.5 49.07Z" fill="white"/>
<path d="M15.56 50.66C17.21 50.66 18.55 49.32 18.55 47.67C18.55 46.02 17.21 44.68 15.56 44.68C13.91 44.68 12.57 46.02 12.57 47.67C12.57 49.32 13.91 50.66 15.56 50.66Z" fill="white"/>
<path d="M22.96 70.85C20.41 70.85 18.3 68.99 17.88 66.56H13.98C14.39 71.25 18.11 74.68 22.96 74.68C27.81 74.68 31.52 71.24 31.93 66.56H28.04C27.62 68.99 25.51 70.85 22.96 70.85Z" fill="white"/>
</svg>
